<?xml version="1.0" encoding="UTF-8" standalone="no"?>
<!-- Created with Inkscape (http://www.inkscape.org/) -->

<svg
   width="77.258331mm"
   height="16.29833mm"
   viewBox="0 0 77.258331 16.29833"
   version="1.1"
   id="svg1"
   xml:space="preserve"
   xmlns="http://www.w3.org/2000/svg"
   xmlns:svg="http://www.w3.org/2000/svg"
   xmlns:rdf="http://www.w3.org/1999/02/22-rdf-syntax-ns#"
   xmlns:cc="http://creativecommons.org/ns#"
   xmlns:dc="http://purl.org/dc/elements/1.1/"><title
     id="title3">SmartTaskerLogo</title><defs
     id="defs1" /><g
     id="layer1"
     transform="translate(-65.738011,-163.43333)"><path
       style="opacity:1;fill:#ffa377;fill-opacity:1"
       d="m 65.738011,171.5825 v -8.14917 h 38.629159 38.62917 v 8.14917 8.14916 h -1.76982 c -1.72051,0 -1.76734,-0.0133 -1.68117,-0.47625 0.0488,-0.26194 0.68479,-3.78618 1.41343,-7.83166 l 1.3248,-7.35542 h -9.68352 c -9.04095,0 -9.69055,0.0246 -9.78943,0.37042 -0.0582,0.20373 -0.70301,3.72798 -1.43281,7.83166 -1.11709,6.28142 -1.38253,7.46125 -1.67863,7.46125 -0.30897,0 -0.32705,-0.13508 -0.14871,-1.11125 0.11165,-0.61119 0.74844,-4.13543 1.41507,-7.83166 l 1.21206,-6.72042 H 95.75698 c -14.53135,0 -26.420636,0.077 -26.420636,0.17108 0,0.17365 -2.442419,13.84169 -2.664382,14.91017 -0.08122,0.39097 -0.25439,0.58208 -0.527436,0.58208 -0.39387,0 -0.406515,-0.25349 -0.406515,-8.14916 z m 62.864999,6.91712 c -6.65113,-2.47333 -4.77603,-13.08879 2.28335,-12.92672 0.96291,0.0221 0.94529,0.0325 -0.50846,0.29858 -5.52731,1.01187 -7.64069,6.95856 -3.84943,10.83163 3.7163,3.79651 10.96454,1.22867 10.96454,-3.88442 0,-0.54125 0.0982,-0.91869 0.23893,-0.91869 0.39207,0 0.0137,2.05957 -0.61374,3.34104 -1.44988,2.96105 -5.32623,4.44445 -8.51519,3.25858 z m 1.27,-0.43853 c -5.51385,-1.19177 -6.46809,-8.55668 -1.4452,-11.15412 0.77158,-0.399 2.95258,-0.75202 3.20331,-0.51849 0.0938,0.0874 -0.38931,0.20967 -1.07366,0.27173 -5.80204,0.52611 -7.06814,8.31871 -1.74279,10.72649 3.44626,1.55818 7.36102,-0.7214 8.01677,-4.66818 l 0.18874,-1.13602 0.0248,0.9716 c 0.0848,3.33099 -3.72057,6.25298 -7.17192,5.50699 z m -0.84667,-2.79086 c -0.40746,-0.58022 -1.2409,-1.44459 -1.85208,-1.92083 -1.30577,-1.01745 -1.32426,-1.05608 -0.42334,-0.88439 1.05159,0.2004 2.17036,0.83063 2.57746,1.45193 l 0.3667,0.55966 0.43406,-0.81205 c 1.20604,-2.25634 2.83651,-3.94945 4.841,-5.02698 l 1.14703,-0.6166 -1.90806,1.99243 c -1.98356,2.07127 -3.21811,3.75939 -3.93575,5.38175 -0.23109,0.52242 -0.43952,0.94538 -0.46318,0.93993 -0.0236,-0.005 -0.37638,-0.48464 -0.78384,-1.06485 z m -57.263178,0.0267 c -0.236875,-0.096 -0.551063,-0.31962 -0.698195,-0.4969 -0.405684,-0.48882 0.05987,-0.64281 0.794649,-0.26284 0.917241,0.47432 1.643886,0.41225 2.027483,-0.17319 0.461834,-0.70485 0.255356,-1.03251 -1.055898,-1.67561 -1.894858,-0.92933 -2.232106,-2.12412 -0.854372,-3.02684 0.620863,-0.40681 1.896517,-0.30026 2.396985,0.20021 0.511459,0.51146 0.111171,0.77004 -0.624168,0.40321 -1.235373,-0.61629 -2.391164,0.28864 -1.552407,1.21545 0.1969,0.21758 0.626348,0.45453 0.954328,0.52657 1.589834,0.34918 2.261472,2.16295 1.130398,3.05265 -0.5781,0.45474 -1.717533,0.56208 -2.518803,0.23729 z m 4.280369,0.0647 c -0.312184,-0.31219 -0.164253,-4.3083 0.159487,-4.3083 0.167755,0 0.364507,0.0963 0.437229,0.21394 0.08369,0.13541 0.299777,0.0966 0.588755,-0.10584 0.620792,-0.43482 1.12714,-0.40164 1.635985,0.10721 l 0.426976,0.42698 0.595234,-0.44008 c 1.396408,-1.03241 2.149146,-0.1292 2.149146,2.57876 0,2.55606 -0.710663,2.40425 -0.802002,-0.17133 -0.108957,-3.07237 -1.673449,-3.06251 -1.782843,0.0112 -0.09065,2.54707 -0.801821,2.71272 -0.801821,0.18677 0,-3.24683 -1.700357,-3.3999 -1.905,-0.17149 -0.09673,1.52604 -0.318461,2.05483 -0.701146,1.67215 z m 7.633229,-0.0919 c -1.080725,-0.62947 -0.200933,-2.1958 1.375833,-2.44946 0.566146,-0.0911 0.79375,-0.23389 0.79375,-0.49806 0,-0.67198 -0.528313,-0.91357 -1.381823,-0.63188 -0.889079,0.29342 -1.239338,0.10066 -0.628677,-0.34598 1.739096,-1.27199 2.926291,-0.20293 2.812792,2.5329 -0.05288,1.27462 -0.590625,2.46664 -0.590625,1.30924 0,-0.31646 -0.04159,-0.31802 -0.47043,-0.0176 -0.535128,0.37481 -1.365255,0.41864 -1.91082,0.10088 z m 1.760165,-0.62549 c 0.769912,-0.41205 0.557713,-1.5568 -0.258325,-1.39359 -0.819611,0.16392 -1.237257,0.49079 -1.237257,0.96834 0,0.66964 0.678466,0.86255 1.495582,0.42525 z m 2.671606,0.71741 c -0.308041,-0.30804 -0.164736,-4.3083 0.15434,-4.3083 0.164924,0 0.33648,0.10986 0.381237,0.24413 0.05563,0.16689 0.261589,0.12605 0.651005,-0.12911 0.313296,-0.20528 0.711633,-0.31874 0.885194,-0.25214 0.415011,0.15926 0.175191,0.77212 -0.302137,0.77212 -0.701556,0 -1.043949,0.68143 -1.110641,2.2104 -0.05832,1.3369 -0.284,1.8379 -0.658998,1.4629 z m 3.591451,-0.25038 c -0.257413,-0.28444 -0.350305,-0.7896 -0.350305,-1.905 0,-1.20815 -0.06479,-1.51792 -0.3175,-1.51792 -0.174625,0 -0.3175,-0.14288 -0.3175,-0.3175 0,-0.17463 0.142875,-0.3175 0.3175,-0.3175 0.211666,0 0.3175,-0.21167 0.3175,-0.635 0,-0.42333 0.105833,-0.635 0.3175,-0.635 0.211666,0 0.3175,0.21167 0.3175,0.635 0,0.56444 0.07055,0.635 0.634999,0.635 0.423334,0 0.635,0.10583 0.635,0.3175 0,0.21167 -0.211666,0.3175 -0.635,0.3175 h -0.634999 v 1.3335 c 0,1.3797 0.222938,1.8415 0.888999,1.8415 0.20955,0 0.381,0.14287 0.381,0.3175 0,0.4572 -1.12347,0.40691 -1.554694,-0.0696 z m 3.816882,0.25038 c -0.08004,-0.08 -0.145521,-1.27265 -0.145521,-2.65025 v -2.50472 h -0.846667 c -0.611481,0 -0.846666,-0.0882 -0.846666,-0.3175 0,-0.26105 0.376296,-0.3175 2.116666,-0.3175 1.740371,0 2.116667,0.0565 2.116667,0.3175 0,0.2289 -0.234461,0.3175 -0.840152,0.3175 h -0.840152 l -0.05943,2.57563 c -0.05516,2.39049 -0.214779,3.0193 -0.654745,2.57934 z m 2.976562,-0.0919 c -1.080725,-0.62947 -0.200933,-2.1958 1.375837,-2.44946 0.864957,-0.13915 1.067837,-0.64094 0.462307,-1.14349 -0.2696,-0.22375 -0.469997,-0.22496 -1.074175,-0.006 -0.864562,0.31263 -1.217753,0.12231 -0.604886,-0.32595 1.716801,-1.25568 2.924831,-0.16786 2.812791,2.5329 -0.0529,1.27462 -0.59063,2.46664 -0.59063,1.30924 0,-0.31646 -0.0416,-0.31802 -0.47043,-0.0176 -0.535117,0.37481 -1.365248,0.41864 -1.910814,0.10088 z m 1.760164,-0.62549 c 0.76991,-0.41205 0.55771,-1.5568 -0.258327,-1.39359 -0.819608,0.16392 -1.237253,0.49079 -1.237253,0.96834 0,0.66964 0.678463,0.86255 1.49558,0.42525 z m 2.68887,0.57998 c -0.39622,-0.17481 -0.52335,-0.34167 -0.40415,-0.53045 0.13739,-0.2176 0.28879,-0.22307 0.72119,-0.0261 1.62071,0.73844 2.10583,-0.45361 0.52337,-1.28604 -1.04245,-0.54836 -1.33396,-0.98463 -1.11626,-1.67057 0.24468,-0.77089 2.15201,-1.08558 2.56172,-0.42265 0.21347,0.3454 -0.13346,0.65249 -0.44502,0.39392 -0.47947,-0.39793 -1.2628,-0.16692 -1.2628,0.37241 0,0.34748 0.25169,0.59917 0.9525,0.9525 2.16413,1.0911 0.7057,3.20357 -1.53055,2.21693 z m 3.79273,0.13743 c -0.37294,-0.37294 -0.1586,-6.4585 0.2249,-6.38535 0.31385,0.0599 0.38658,0.38765 0.47625,2.14637 l 0.10583,2.07572 0.81652,-1.07252 c 0.49617,-0.65174 0.98065,-1.07252 1.23487,-1.07252 0.37655,0 0.35313,0.0823 -0.23443,0.82421 -0.79773,1.00722 -0.80452,0.83538 0.088,2.23068 0.84163,1.31567 0.86383,1.39011 0.41459,1.39011 -0.17943,0 -0.62304,-0.47745 -0.9858,-1.061 -0.74251,-1.19446 -1.34571,-1.08321 -1.48078,0.27311 -0.0634,0.63634 -0.37115,0.94002 -0.65999,0.65119 z m 4.99848,-0.0775 c -0.70012,-0.28195 -1.18978,-1.39185 -1.05556,-2.39259 0.32648,-2.43402 3.53156,-2.64032 3.53156,-0.2273 v 0.71738 h -1.46185 c -1.34133,0 -1.45302,0.0338 -1.35473,0.40963 0.20236,0.77384 0.83229,1.13841 1.7535,1.01485 0.61259,-0.0822 0.85142,-0.0377 0.85142,0.15848 0,0.48411 -1.37415,0.67804 -2.26434,0.31955 z m 1.841,-2.73405 c 0,-0.92527 -1.03026,-1.35603 -1.72958,-0.72315 -0.76359,0.69104 -0.50234,1.13136 0.67125,1.13136 0.90416,0 1.05833,-0.0595 1.05833,-0.40821 z m 1.905,0.72571 c 0,-1.83444 0.0554,-2.2225 0.3175,-2.2225 0.17463,0 0.3175,0.14287 0.3175,0.3175 0,0.24379 0.10131,0.2162 0.43635,-0.11885 0.48184,-0.48183 1.15115,-0.47427 1.15115,0.013 0,0.17143 -0.1905,0.34665 -0.42333,0.38937 -0.92177,0.16911 -1.16417,0.64577 -1.16417,2.28927 0,1.24083 -0.0641,1.55469 -0.3175,1.55469 -0.26206,0 -0.3175,-0.38806 -0.3175,-2.2225 z"
       id="path1" /></g><metadata
     id="metadata3"><rdf:RDF><cc:Work
         rdf:about=""><dc:title>SmartTaskerLogo</dc:title></cc:Work></rdf:RDF></metadata></svg>
